<svg id="Layer_1" enable-background="new 0 0 511.811 511.811" height="512" viewBox="0 0 511.811 511.811" width="512" xmlns="http://www.w3.org/2000/svg"><g><g><g><path d="m97.052 35.769h349.136v436.845h-349.136z" fill="#b5ceff"/><path d="m396.187 35.769h50v436.845h-50z" fill="#a4c2ff"/><path d="m65.623 67.466h349.136v436.845h-349.136z" fill="#e9f2ff"/><path d="m364.759 67.466h50v436.845h-50z" fill="#deebff"/></g><path d="" style="fill:none;stroke:#000;stroke-width:15;stroke-linecap:round;stroke-linejoin:round;stroke-miterlimit:10"/></g><path d="m446.188 110.945c4.143 0 7.5-3.358 7.5-7.5v-67.675c0-4.142-3.357-7.5-7.5-7.5h-39.719c-7.655-37.71-60.343-37.675-67.704 0h-241.713c-4.142 0-7.5 3.358-7.5 7.5v24.196h-23.929c-4.142 0-7.5 3.358-7.5 7.5v349.707c0 9.697 15 9.697 15 0v-342.207h265.126v74.458c1.402 33.859 49.878 33.871 51.284 0v-37.55c0-10.098-8.213-18.313-18.309-18.313-9.937.352-9.92 14.657 0 15 1.824 0 3.308 1.486 3.308 3.313v37.55c0 5.807-4.774 10.531-10.643 10.531s-10.642-4.724-10.642-10.531v-74.458h54.01v421.845h-334.134v-40.386c0-9.697-15-9.697-15 0v47.886c0 4.142 3.358 7.5 7.5 7.5h349.136c4.143 0 7.5-3.358 7.5-7.5v-24.196h23.929c4.143 0 7.5-3.358 7.5-7.5v-327.677c0-9.697-15-9.697-15 0v320.176h-16.429v-397.648c0-4.142-3.357-7.5-7.5-7.5h-61.51v-16.696h85.438v60.176c.001 4.141 3.358 7.499 7.501 7.499zm-73.732-96.133c8.129-.055 16.126 5.653 18.606 13.458h-36.889c2.487-7.732 9.739-13.39 18.283-13.458zm-34.207 45.154h-233.697v-16.696h233.697z"/></g></svg>